<svg xmlns="http://www.w3.org/2000/svg" viewBox="0 0 152.22 146.39"><defs><style>.cls-1{fill:#35190e;}.cls-2{fill:#ffa81d;}.cls-3{fill:#ffc5ae;}.cls-4{fill:#fffaf0;}.cls-5{fill:#fff;}.cls-6{fill:none;stroke:#998271;stroke-linecap:round;stroke-linejoin:round;stroke-width:3px;}</style></defs><title>icon_3</title><g id="Layer_2" data-name="Layer 2"><g id="Layer_1-2" data-name="Layer 1"><path class="cls-1" d="M16.8,11.11l16.43-.44A70.62,70.62,0,0,0,9.83.19C4.62-1,.64,3.81,1.33,10.32A121,121,0,0,0,5.91,32.79L9.57,17A7.62,7.62,0,0,1,16.8,11.11Z"/><path class="cls-2" d="M57,32.46A119.21,119.21,0,0,0,33.23,10.67l-16.43.44A7.62,7.62,0,0,0,9.57,17L5.91,32.79A154,154,0,0,0,19.25,63.23Z"/><path class="cls-3" d="M26.8,64.21C20.94,53.36,15.52,40.84,14.22,25.09c-.38-4.66,2.65-8.1,6.46-7.24,13.39,3,24.74,11.78,34.82,23.34Z"/><path class="cls-1" d="M135.43,11.11,119,10.67A70.62,70.62,0,0,1,142.39.19c5.21-1.22,9.19,3.62,8.5,10.13a121,121,0,0,1-4.58,22.47L142.65,17A7.62,7.62,0,0,0,135.43,11.11Z"/><path class="cls-2" d="M95.25,32.46A119.21,119.21,0,0,1,119,10.67l16.44.44a7.62,7.62,0,0,1,7.22,5.9l3.66,15.78A154.56,154.56,0,0,1,133,63.23Z"/><path class="cls-3" d="M125.42,64.21c5.86-10.85,11.29-23.37,12.58-39.12.39-4.66-2.64-8.1-6.46-7.24-13.39,3-24.74,11.78-34.82,23.34Z"/><path class="cls-2" d="M135.87,59.5c-11.19-26.65-33.52-37.8-60.25-37.8S26.56,32.85,15.38,59.5c-3.78,9-7.55,23.58-7.23,33.26,1.11,33.94,26.67,52.63,67.47,52.63S142,126.7,143.1,92.76C143.41,83.08,139.65,68.5,135.87,59.5Z"/><path class="cls-4" d="M81.11,110.38c-1.8-.11-3.62-.17-5.49-.17-1.52,0-3,0-4.5.11C72.3,90.76,5.47,90.37,0,99.63c2.58,14.6,13.46,25.38,24.58,32A115.64,115.64,0,0,0,60,145.14l0-.13a88.88,88.88,0,0,0,32.18-.18,2.83,2.83,0,0,0,.11.31,115.84,115.84,0,0,0,35.37-13.54c11.11-6.59,22-17.37,24.57-32C146.75,90.37,79.91,90.8,81.11,110.38Z"/><circle class="cls-1" cx="41.92" cy="89.7" r="8"/><path class="cls-5" d="M37.29,89.7a2.75,2.75,0,0,1-.4-1.36,3.65,3.65,0,0,1,.23-1.47,3.83,3.83,0,0,1,.39-.75,5.29,5.29,0,0,1,.55-.7,5.2,5.2,0,0,1,.69-.55,4.21,4.21,0,0,1,.76-.39,4.5,4.5,0,0,1,.76-.2,3.46,3.46,0,0,1,.71,0,2.54,2.54,0,0,1,.58.08,2,2,0,0,1,.43.14,2.46,2.46,0,0,1,.35.18l-.33.22c-.2.12-.47.3-.76.5a13,13,0,0,0-1.77,1.47A12.58,12.58,0,0,0,38,88.62c-.19.29-.38.52-.5.75A2.33,2.33,0,0,1,37.29,89.7Z"/><circle class="cls-1" cx="109.33" cy="89.7" r="8"/><path class="cls-5" d="M104.7,89.7a2.75,2.75,0,0,1-.4-1.36,3.65,3.65,0,0,1,.23-1.47,3.83,3.83,0,0,1,.39-.75,4.58,4.58,0,0,1,.55-.7,5.2,5.2,0,0,1,.69-.55,4.21,4.21,0,0,1,.76-.39,4.5,4.5,0,0,1,.76-.2,3.39,3.39,0,0,1,.7,0,2.55,2.55,0,0,1,.59.08,2.17,2.17,0,0,1,.43.14,2.46,2.46,0,0,1,.35.18l-.33.22c-.2.12-.47.3-.76.5a13.7,13.7,0,0,0-1.78,1.47,13.2,13.2,0,0,0-1.47,1.78,8.09,8.09,0,0,0-.5.75A2.33,2.33,0,0,1,104.7,89.7Z"/><ellipse class="cls-4" cx="75.62" cy="117.28" rx="18.89" ry="14.76"/><path class="cls-6" d="M74.91,110.21c.43.87,0,3.91,0,3.91s-3.16,7.11-12.12,4"/><path class="cls-6" d="M76.34,110.21c-.43.87,0,3.91,0,3.91s3.16,7.11,12.12,4"/><path class="cls-1" d="M81.31,101.53H69.78c-1.58,0-2.56,1.42-1.74,2.53,2,2.66,5.18,6.47,7.5,6.47s5.54-3.81,7.51-6.47C83.87,103,82.89,101.53,81.31,101.53Z"/></g></g></svg>