<svg xmlns="http://www.w3.org/2000/svg" viewBox="0 0 170 135.81"><defs><style>.cls-1{fill:#d7864f;}.cls-2{fill:#ffc5ae;}.cls-3{fill:#fff9f3;}.cls-4{fill:#35190e;}.cls-5{fill:#fff;}.cls-6{fill:none;stroke:#564f4a;stroke-linecap:round;stroke-linejoin:round;stroke-width:3px;}.cls-7{fill:#a57a5d;}</style></defs><title>icon_1</title><g id="Layer_2" data-name="Layer 2"><g id="Layer_1-2" data-name="Layer 1"><circle class="cls-1" cx="23.55" cy="23.55" r="23.55" transform="translate(-3.23 43.36) rotate(-81.48)"/><circle class="cls-2" cx="26.78" cy="26.78" r="11.35" transform="translate(-8.17 12.19) rotate(-22.34)"/><circle class="cls-1" cx="146.45" cy="23.55" r="23.55" transform="translate(-1.85 26.6) rotate(-10.31)"/><circle class="cls-2" cx="143.22" cy="26.78" r="11.35" transform="translate(64.02 149.08) rotate(-67.66)"/><ellipse class="cls-1" cx="84.29" cy="69.36" rx="70.66" ry="66.45"/><path class="cls-3" d="M83.68,77.85c-19.91,1.81-27.76,13.7-27.76,21.66a14.42,14.42,0,0,0,28.4,3.5,14.42,14.42,0,0,0,28.4-3.5C112.72,91.55,100.83,77.85,83.68,77.85Z"/><circle class="cls-4" cx="49.45" cy="73.54" r="8.28"/><path class="cls-5" d="M44.66,73.54a3.15,3.15,0,0,1-.18-.36,2.62,2.62,0,0,1-.22-1.05,3.6,3.6,0,0,1,0-.72,4.22,4.22,0,0,1,.21-.79,4.35,4.35,0,0,1,.4-.77,5.54,5.54,0,0,1,.57-.71,4.23,4.23,0,0,1,.71-.57,4.16,4.16,0,0,1,.78-.41,3.89,3.89,0,0,1,.78-.2,2.62,2.62,0,0,1,.73,0,2.17,2.17,0,0,1,.59.07,2,2,0,0,1,.45.14,2.32,2.32,0,0,1,.36.18l-.34.22-.79.5a12,12,0,0,0-3.38,3.38c-.19.31-.38.55-.5.79A3.07,3.07,0,0,1,44.66,73.54Z"/><circle class="cls-4" cx="119.2" cy="73.54" r="8.28"/><path class="cls-5" d="M114.4,73.54s-.07-.13-.18-.36a2.83,2.83,0,0,1-.21-1.05,3,3,0,0,1,0-.72,4.22,4.22,0,0,1,.21-.79,4.35,4.35,0,0,1,.4-.77,5.54,5.54,0,0,1,.57-.71,4.23,4.23,0,0,1,.71-.57,4.16,4.16,0,0,1,.78-.41,3.89,3.89,0,0,1,.78-.2,2.57,2.57,0,0,1,.72,0,2.2,2.2,0,0,1,.6.07,2,2,0,0,1,.45.14,2.32,2.32,0,0,1,.36.18l-.34.22c-.21.12-.49.3-.79.5a12,12,0,0,0-3.38,3.38c-.2.31-.38.55-.5.79S114.4,73.54,114.4,73.54Z"/><path class="cls-6" d="M83.58,97c.45.91,0,4,0,4s-3.27,7.36-12.54,4.11"/><path class="cls-6" d="M85.07,97c-.46.91,0,4,0,4s3.27,7.36,12.53,4.11"/><path class="cls-7" d="M90.21,88H78.27c-1.64,0-2.64,1.47-1.79,2.62,2,2.76,5.35,6.69,7.76,6.69S90,93.41,92,90.65C92.85,89.5,91.84,88,90.21,88Z"/></g></g></svg>