<svg xmlns="http://www.w3.org/2000/svg" viewBox="0 0 170.02 151.6"><defs><style>.cls-1{fill:#f9c791;}.cls-2{fill:#35190e;}.cls-3{fill:#fff;}.cls-4{fill:#ffc5ae;}.cls-5{fill:#d7864f;}.cls-6{fill:#fffaf0;}.cls-7{fill:none;stroke:#998271;stroke-linecap:round;stroke-linejoin:round;stroke-width:3px;}.cls-8{fill:#a57a5d;}</style></defs><title>icon_0</title><g id="Layer_2" data-name="Layer 2"><g id="Layer_1-2" data-name="Layer 1"><path class="cls-1" d="M145.26,65.7C134.07,39.06,111.73,27.91,85,27.91S36,39.06,24.77,65.7C21,74.71,17.22,89.29,17.54,99,18.65,132.9,44.21,151.6,85,151.6S151.37,132.9,152.49,99C152.8,89.29,149,74.71,145.26,65.7Z"/><circle class="cls-2" cx="51.31" cy="95.91" r="8"/><path class="cls-3" d="M46.68,95.91a3.81,3.81,0,0,1,5-5c-.66.42-1.17.75-1.63,1.11a11.85,11.85,0,0,0-2.31,2.31C47.43,94.74,47.1,95.25,46.68,95.91Z"/><circle class="cls-2" cx="118.72" cy="95.91" r="8"/><path class="cls-3" d="M114.09,95.91a3.81,3.81,0,0,1,5-5A18.79,18.79,0,0,0,117.51,92a12.28,12.28,0,0,0-2.32,2.31C114.83,94.74,114.51,95.25,114.09,95.91Z"/><path class="cls-4" d="M15.08,51.6a33.82,33.82,0,0,0-15-6A26.94,26.94,0,0,0,12.22,66.71c3.53,2.22,10,3.27,15.26,2.15A34.09,34.09,0,0,0,15.08,51.6Z"/><path class="cls-5" d="M35.31,57.84C33.59,50.44,6.22,34.31,3.52,35.28,1.45,36,.58,38.47.26,40.64a24.42,24.42,0,0,0-.22,5,33.82,33.82,0,0,1,15,6,34.09,34.09,0,0,1,12.4,17.26C32.78,67.74,36.83,64.41,35.31,57.84Z"/><path class="cls-4" d="M154.94,51.6a33.86,33.86,0,0,1,15.05-6A26.93,26.93,0,0,1,157.8,66.71c-3.53,2.22-10,3.27-15.26,2.15A34.09,34.09,0,0,1,154.94,51.6Z"/><path class="cls-5" d="M134.72,57.84c1.71-7.4,29.09-23.53,31.78-22.56,2.07.75,2.94,3.19,3.27,5.36a25.15,25.15,0,0,1,.22,5,33.35,33.35,0,0,0-27.45,23.24C137.24,67.74,133.2,64.41,134.72,57.84Z"/><path class="cls-5" d="M145.26,65.7C134.07,39.06,111.73,27.91,85,27.91S36,39.06,24.77,65.7C21,74.71,17.22,89.29,17.54,99c0,.79.08,1.57.13,2.35a57.89,57.89,0,0,1,29.67-41.4c6.81-3.56,15.58-5.54,21.87-1.12,5.16,3.64,7,10.38,8,16.6A171.17,171.17,0,0,1,79.46,114c-.1,1.7-.48,1-.48,2.67a7.45,7.45,0,0,0,6-2.06,7.46,7.46,0,0,0,6,2.06c0-1.7-.38-1-.47-2.67A170,170,0,0,1,92.79,75.4c1.07-6.22,2.86-13,8-16.6,6.29-4.42,15.05-2.44,21.86,1.12a57.86,57.86,0,0,1,29.67,41.4c.06-.78.11-1.56.14-2.35C152.8,89.29,149,74.71,145.26,65.7Z"/><ellipse class="cls-6" cx="85.01" cy="123.49" rx="18.89" ry="14.76"/><path class="cls-7" d="M84.29,116.42c.44.87,0,3.9,0,3.9s-3.16,7.12-12.11,4"/><path class="cls-7" d="M85.73,116.42c-.44.87,0,3.9,0,3.9s3.16,7.12,12.11,4"/><path class="cls-8" d="M90.7,107.73H79.17c-1.59,0-2.56,1.42-1.74,2.54,2,2.66,5.17,6.46,7.5,6.46s5.54-3.8,7.5-6.46C93.26,109.15,92.28,107.73,90.7,107.73Z"/><path class="cls-8" d="M58.66,31.5c4.13-8.61,3.47-22.42-2.86-26.82-2.69-1.88-7.12-1.32-8.44,1.68-1.53,3.48,1.48,8.32-1.2,11-1.87,1.88-5.31.94-6.95-1.16s-2-4.87-2.46-7.48-1.18-5.41-3.24-7.09c-3-2.79-8.23-1.82-11,1.24s-3.35,7.5-2.93,11.57c1.09,10.53,10.07,21,20.65,23.93a18.46,18.46,0,0,0,2.93,3.67c3.37,3.17,8.87,4.59,12.67,2,3.54-2.44,4.38-7.53,3.11-11.64C58.89,32.08,58.77,31.79,58.66,31.5Z"/><path class="cls-8" d="M111.36,31.5c-4.13-8.61-3.47-22.42,2.86-26.82,2.69-1.88,7.12-1.32,8.44,1.68,1.54,3.48-1.47,8.32,1.21,11,1.87,1.88,5.31.94,6.94-1.16s2-4.87,2.47-7.48,1.18-5.41,3.24-7.09c3-2.79,8.23-1.82,10.95,1.24s3.35,7.5,2.93,11.57c-1.09,10.53-10.06,21-20.65,23.93a18.46,18.46,0,0,1-2.93,3.67c-3.36,3.17-8.86,4.59-12.67,2-3.53-2.44-4.37-7.53-3.11-11.64C111.14,32.08,111.25,31.79,111.36,31.5Z"/></g></g></svg>