<svg xmlns="http://www.w3.org/2000/svg" viewBox="0 0 169.85 129.63"><defs><style>.cls-1{fill:#ffbd5c;}.cls-2{fill:#35190e;}.cls-3{fill:#fff;}.cls-4{fill:#ffc5ae;}.cls-5,.cls-6{fill:#dd6e00;}.cls-6{stroke:#dd6e00;stroke-miterlimit:10;stroke-width:4px;}.cls-7{fill:#fffaf0;}.cls-8{fill:none;stroke:#998271;stroke-linecap:round;stroke-linejoin:round;stroke-width:3px;}.cls-9{fill:#8c6042;}</style></defs><title>icon_4</title><g id="Layer_2" data-name="Layer 2"><g id="Layer_1-2" data-name="Layer 1"><path class="cls-1" d="M145.17,39.79C134,13.15,111.65,2,84.93,2S35.87,13.15,24.68,39.79c-3.78,9-7.54,23.59-7.23,33.27,1.12,33.94,26.67,52.63,67.48,52.63S151.29,107,152.4,73.06C152.72,63.38,149,48.8,145.17,39.79Z"/><circle class="cls-2" cx="51.22" cy="70" r="8"/><path class="cls-3" d="M46.59,70a3.49,3.49,0,0,1-.18-.35,2.62,2.62,0,0,1-.22-1,3.63,3.63,0,0,1,.23-1.47,5,5,0,0,1,.4-.76,5,5,0,0,1,.54-.69,5.29,5.29,0,0,1,.7-.55,3.83,3.83,0,0,1,.75-.39,4.6,4.6,0,0,1,.77-.2,2.78,2.78,0,0,1,.7,0,2.08,2.08,0,0,1,.58.08,2,2,0,0,1,.43.14,2.46,2.46,0,0,1,.35.18s-.12.09-.32.21-.47.31-.76.5a12.58,12.58,0,0,0-1.78,1.48,13.1,13.1,0,0,0-1.48,1.77c-.19.3-.37.53-.49.76S46.59,70,46.59,70Z"/><circle class="cls-2" cx="118.63" cy="70" r="8"/><path class="cls-3" d="M114,70a3.49,3.49,0,0,1-.18-.35,2.44,2.44,0,0,1-.22-1,3.63,3.63,0,0,1,.23-1.47,4.21,4.21,0,0,1,.39-.76,3.93,3.93,0,0,1,1.24-1.24,4.21,4.21,0,0,1,.76-.39,4.37,4.37,0,0,1,.77-.2,2.78,2.78,0,0,1,.7,0,2.08,2.08,0,0,1,.58.08,2,2,0,0,1,.43.14,2.46,2.46,0,0,1,.35.18s-.12.09-.32.21-.48.31-.76.5a12.58,12.58,0,0,0-1.78,1.48,13.1,13.1,0,0,0-1.48,1.77c-.19.3-.38.53-.5.76A3.49,3.49,0,0,1,114,70Z"/><path class="cls-4" d="M16.24,24.34A36.39,36.39,0,0,0,0,17.89,29,29,0,0,0,13.16,40.6C17,43,23.94,44.12,29.59,42.92A36.58,36.58,0,0,0,16.24,24.34Z"/><path class="cls-5" d="M38,31C38.37,4.4,6.69,5.72,3.79,6.76,1.56,7.56.63,10.19.28,12.53A26.75,26.75,0,0,0,0,17.89a36.39,36.39,0,0,1,16.2,6.45A36.58,36.58,0,0,1,29.59,42.92C35.3,41.71,37.92,38.31,38,31Z"/><path class="cls-4" d="M153.61,24.34a36.44,36.44,0,0,1,16.2-6.45A29,29,0,0,1,156.69,40.6c-3.8,2.39-10.77,3.52-16.43,2.32A36.63,36.63,0,0,1,153.61,24.34Z"/><path class="cls-5" d="M131.84,31C131.49,4.4,163.16,5.72,166.06,6.76c2.23.8,3.17,3.43,3.52,5.77a26,26,0,0,1,.23,5.36,35.95,35.95,0,0,0-29.55,25C134.55,41.71,131.93,38.31,131.84,31Z"/><path class="cls-6" d="M145.17,39.79C134,13.15,111.65,2,84.93,2S35.87,13.15,24.68,39.79c-3.78,9-7.54,23.59-7.23,33.27,0,.79.08,1.57.13,2.35C20.42,58.07,31.64,45.16,47.26,37c6.81-3.56,15.57-5.53,21.86-1.11,5.17,3.63,7,10.37,8,16.6a145.14,145.14,0,0,1,2.22,35.55c-.09,1.7-.48,1-.47,2.67a7.46,7.46,0,0,0,6-2.06,7.45,7.45,0,0,0,6,2.06c0-1.7-.38-1-.48-2.67A145.63,145.63,0,0,1,92.7,52.5c1.08-6.23,2.87-13,8-16.6C107,31.48,115.79,33.45,122.6,37c15.61,8.15,26.84,21.06,29.67,38.4,0-.78.1-1.56.13-2.35C152.72,63.38,149,48.8,145.17,39.79Z"/><path class="cls-7" d="M146.11,70.45c-5.27-1.53-12.2-.32-17.93,5.18-4,3.82-30.71,35.07-43.25,35.07S45.74,79.35,41.67,75.63a19.74,19.74,0,0,0-17.92-4.18C18.48,73,13.93,78,13.93,83.84c0,30.09,51.11,45.88,72.81,45.79,20.49-.09,69.19-15.24,69.19-46.79C155.93,77,151.37,72,146.11,70.45Z"/><ellipse class="cls-7" cx="84.93" cy="97.58" rx="18.89" ry="14.76"/><path class="cls-8" d="M84.21,90.51c.43.87,0,3.9,0,3.9s-3.16,7.12-12.12,4"/><path class="cls-8" d="M85.65,90.51c-.44.87,0,3.9,0,3.9s3.16,7.12,12.11,4"/><path class="cls-9" d="M90.61,81.82H79.08c-1.58,0-2.56,1.42-1.74,2.54,2,2.66,5.18,6.46,7.51,6.46s5.54-3.8,7.5-6.46C93.17,83.24,92.2,81.82,90.61,81.82Z"/></g></g></svg>