<svg xmlns="http://www.w3.org/2000/svg" viewBox="0 0 166.62 135.3"><defs><style>.cls-1{fill:#c17474;}.cls-2{fill:#fff9f3;}.cls-3{fill:#f2dac0;}.cls-4{fill:#35190e;}.cls-5{fill:#fff;}.cls-6{fill:#ffd16c;}.cls-7{fill:#8e4f4f;}</style></defs><title>icon_2</title><g id="Layer_2" data-name="Layer 2"><g id="Layer_1-2" data-name="Layer 1"><path class="cls-1" d="M22.52,37.33c-.82-10.69-.55-22,4.39-33.6a5.62,5.62,0,0,1,8-3c10,6.05,16.7,15.66,21.63,27.38Z"/><path class="cls-1" d="M144.36,37.33c.82-10.69.55-22-4.39-33.6a5.62,5.62,0,0,0-8-3c-10,6.05-16.7,15.66-21.63,27.38Z"/><path class="cls-1" d="M150.75,50.73C142.5,17.46,115,2.21,83.31,2.21S24.12,17.46,15.88,50.73a73.54,73.54,0,0,0-1,31.05c0,.23.1.46.14.69,6.2,32.18,31.75,52.11,68.26,52.11s62.06-19.93,68.26-52.11c0-.23.1-.46.14-.69A73.54,73.54,0,0,0,150.75,50.73ZM83.31,128.3c-34.74,0-63.46-21.2-68.23-48.76a51.77,51.77,0,0,1,2.3-13.89c.38-1.2.81-2.39,1.28-3.56a43.38,43.38,0,0,1,4.52-8.36c.49-.71,1-1.4,1.55-2.07a41.4,41.4,0,0,1,3.53-3.85c.95-.91,1.94-1.77,3-2.59s2.12-1.59,3.23-2.31a40.62,40.62,0,0,1,12.11-5.28,36.94,36.94,0,0,1,3.91-.75,34.84,34.84,0,0,1,4-.32,32.94,32.94,0,0,1,5.33.31,29.56,29.56,0,0,1,3.85.8,30.45,30.45,0,0,1,5.49,2.13,33.31,33.31,0,0,1,3.37,2,30.8,30.8,0,0,1,3.08,2.34,28.22,28.22,0,0,1,7.74,10.56,28.22,28.22,0,0,1,7.74-10.56,30.8,30.8,0,0,1,3.08-2.34,32.39,32.39,0,0,1,3.38-2A30.06,30.06,0,0,1,103,37.67a29.36,29.36,0,0,1,3.86-.8c14.19-2,28.74,5.56,36.59,16.86a41,41,0,0,1,2.94,4.92q.54,1.05,1,2.13a45.74,45.74,0,0,1,2.37,6.68A49.77,49.77,0,0,1,151,73c.19,1.25.34,2.5.44,3.76.08.92.12,1.84.15,2.77C146.77,107.1,118.05,128.3,83.31,128.3Z"/><path class="cls-2" d="M83.31,135.3c34.74,0,63.46-20.19,68.23-47.76,0-.92-.07-9.85-.15-10.77-.1-1.26-.25-2.51-.44-3.76a49.77,49.77,0,0,0-1.18-5.55,45,45,0,0,0-3.39-8.81,41,41,0,0,0-2.94-4.92c-7.85-11.3-22.4-18.82-36.59-16.86a29.36,29.36,0,0,0-3.86.8,30.06,30.06,0,0,0-5.48,2.13,32.39,32.39,0,0,0-3.38,2,30.8,30.8,0,0,0-3.08,2.34,28.22,28.22,0,0,0-7.74,10.56,28.22,28.22,0,0,0-7.74-10.56,30.8,30.8,0,0,0-3.08-2.34,33.31,33.31,0,0,0-3.37-2,30.45,30.45,0,0,0-5.49-2.13,29.56,29.56,0,0,0-3.85-.8,32.94,32.94,0,0,0-5.33-.31,36,36,0,0,0-7.87,1.07,40.62,40.62,0,0,0-12.11,5.28,40.91,40.91,0,0,0-9.74,8.75c-.54.67-1.06,1.36-1.55,2.07a43.38,43.38,0,0,0-4.52,8.36c-.47,1.17-.9,2.36-1.28,3.56-1.41,4.48-2.15,17.17-2.3,21.89C19.85,115.11,48.57,135.3,83.31,135.3Z"/><circle class="cls-3" cx="48.69" cy="72.89" r="24"/><circle class="cls-3" cx="117.93" cy="72.89" r="24"/><circle class="cls-4" cx="49.38" cy="74.55" r="8"/><path class="cls-5" d="M44.75,74.55a3.81,3.81,0,0,1,5-5c-.65.42-1.17.75-1.63,1.11a11.87,11.87,0,0,0-1.23,1.08,10.91,10.91,0,0,0-1.08,1.23C45.5,73.38,45.17,73.9,44.75,74.55Z"/><circle class="cls-4" cx="116.79" cy="74.55" r="8"/><path class="cls-5" d="M112.16,74.55a3.81,3.81,0,0,1,5-5c-.65.42-1.17.75-1.63,1.11a11.87,11.87,0,0,0-1.23,1.08,10.91,10.91,0,0,0-1.08,1.23C112.91,73.38,112.58,73.9,112.16,74.55Z"/><path class="cls-6" d="M94.74,102.75c0,7.4-5.12,17.62-11.43,17.62s-11.42-10.22-11.42-17.62S77,89.37,83.31,89.37,94.74,95.36,94.74,102.75Z"/><path class="cls-7" d="M83.69,54.83A54.65,54.65,0,0,0,36,47c-6,1.89-11.7,4.83-17.82,6.35S5,54.71,0,50.91C9.61,52.35,16,48,24.31,43.06S41.12,32.47,50.78,31.5C65.35,30.05,81.26,40.39,83.69,54.83Z"/><path class="cls-7" d="M82.93,54.83A54.65,54.65,0,0,1,130.66,47c6,1.89,11.7,4.83,17.82,6.35s13.1,1.39,18.14-2.41c-9.61,1.44-16-2.89-24.31-7.85s-16.8-10.59-26.47-11.56C101.27,30.05,85.36,40.39,82.93,54.83Z"/></g></g></svg>