<svg xmlns="http://www.w3.org/2000/svg" viewBox="0 0 159.06 140.38"><defs><style>.cls-1,.cls-5{stroke:#000;stroke-width:3px;}.cls-1,.cls-4{stroke-miterlimit:10;}.cls-2{fill:#ffc5ae;}.cls-3{fill:#fff;}.cls-4,.cls-5{fill:none;}.cls-4{stroke:#fff;stroke-width:2px;}.cls-5{stroke-linecap:round;stroke-linejoin:round;}</style></defs><title>icon_7</title><g id="Layer_2" data-name="Layer 2"><g id="Layer_1-2" data-name="Layer 1"><circle class="cls-1" cx="23.12" cy="23.12" r="21.62"/><circle class="cls-2" cx="26.08" cy="26.08" r="10.42" transform="translate(-5.32 45.44) rotate(-76.66)"/><circle class="cls-1" cx="135.94" cy="23.12" r="21.62"/><circle class="cls-2" cx="132.98" cy="26.08" r="10.42" transform="translate(25.31 108.38) rotate(-48.49)"/><circle class="cls-1" cx="23.12" cy="23.12" r="21.62"/><circle class="cls-2" cx="26.08" cy="26.08" r="10.42" transform="translate(-5.32 45.44) rotate(-76.66)"/><circle class="cls-1" cx="135.94" cy="23.12" r="21.62"/><circle class="cls-2" cx="132.98" cy="26.08" r="10.42" transform="translate(25.31 108.38) rotate(-48.49)"/><path class="cls-3" d="M108.76,11.88a79.65,79.65,0,0,0-29.23-5.5c-40.67,0-73.64,30-73.64,67s33,67,73.64,67c31.42,0,58.23-17.91,68.81-43.11a61.63,61.63,0,0,0,4.83-23.89C153.17,45.83,134.89,22.17,108.76,11.88Z"/><path d="M67.54,69.21c0,14.72-11.84,28.91-27.46,31C23.22,102.35,10.33,89.55,12.39,72.6,14.31,56.82,28.5,44.81,43.24,44.81A23.92,23.92,0,0,1,67.54,69.21Z"/><path d="M91.52,69.21c0,14.72,11.85,28.91,27.47,31,16.86,2.19,29.75-10.61,27.68-27.56-1.91-15.78-16.1-27.79-30.84-27.79A23.93,23.93,0,0,0,91.52,69.21Z"/><circle class="cls-4" cx="45.83" cy="78.08" r="8"/><path class="cls-3" d="M41.2,78.08a3.49,3.49,0,0,1-.18-.35,2.46,2.46,0,0,1-.22-1A3.61,3.61,0,0,1,41,75.25a4.21,4.21,0,0,1,.39-.76,3.93,3.93,0,0,1,1.24-1.24,4.21,4.21,0,0,1,.76-.39,3.72,3.72,0,0,1,.76-.2,2.41,2.41,0,0,1,.7,0,1.79,1.79,0,0,1,.59.08,1.67,1.67,0,0,1,.43.13,3.12,3.12,0,0,1,.35.19l-.33.21c-.2.12-.47.31-.76.5a14.57,14.57,0,0,0-1.78,1.47A13.07,13.07,0,0,0,41.91,77a8.11,8.11,0,0,0-.5.76A3.49,3.49,0,0,1,41.2,78.08Z"/><circle class="cls-4" cx="113.24" cy="78.08" r="8"/><path class="cls-3" d="M108.61,78.08a3.49,3.49,0,0,1-.18-.35,2.46,2.46,0,0,1-.22-1,3.44,3.44,0,0,1,.23-1.46,4.21,4.21,0,0,1,.39-.76,3.93,3.93,0,0,1,1.24-1.24,4.21,4.21,0,0,1,.76-.39,3.72,3.72,0,0,1,.76-.2,2.39,2.39,0,0,1,.7,0,1.73,1.73,0,0,1,.58.08,1.46,1.46,0,0,1,.43.13,2.87,2.87,0,0,1,.36.19l-.33.21c-.2.12-.47.31-.76.5a14.57,14.57,0,0,0-1.78,1.47A13.07,13.07,0,0,0,109.32,77a8.11,8.11,0,0,0-.5.76A3.49,3.49,0,0,1,108.61,78.08Z"/><path class="cls-5" d="M78.81,98.58c.44.88,0,3.91,0,3.91s-3.16,7.11-12.11,4"/><path class="cls-5" d="M80.25,98.58c-.44.88,0,3.91,0,3.91s3.16,7.11,12.11,4"/><path d="M87.62,86H71.29c-2.24,0-3.62,4-2.46,5.59,2.78,3.77,7.33,9.15,10.62,9.15s7.85-5.38,10.63-9.15C91.24,90,89.86,86,87.62,86Z"/></g></g></svg>