<svg xmlns="http://www.w3.org/2000/svg" xmlns:xlink="http://www.w3.org/1999/xlink" viewBox="0 0 172.59 163.86"><defs><style>.cls-1,.cls-2,.cls-8{fill:none;}.cls-2,.cls-8{stroke:#35190e;}.cls-2,.cls-5,.cls-8{stroke-miterlimit:10;}.cls-2{stroke-width:6px;}.cls-3,.cls-5{fill:#35190e;}.cls-4{fill:#ffd45c;}.cls-5{stroke:#fff;stroke-width:2px;}.cls-6{fill:#fff;}.cls-7{clip-path:url(#clip-path);}.cls-8{stroke-linecap:round;stroke-width:9px;}.cls-9{fill:#73d3dd;}</style><clipPath id="clip-path"><path id="SVGID" class="cls-1" d="M25.12,60.27a64.87,64.87,0,1,0,117.64,0c-15.53,10.79-36.17,17.37-58.82,17.37S40.65,71.06,25.12,60.27Z"/></clipPath></defs><title>icon_6</title><g id="Layer_2" data-name="Layer 2"><g id="Layer_1-2" data-name="Layer 1"><path class="cls-2" d="M60.5,51.71C61.8,35.4,51.89,18.79,36.92,12.2"/><circle class="cls-3" cx="36.06" cy="9.07" r="9.07" transform="translate(13.88 38.91) rotate(-67.49)"/><path class="cls-2" d="M107.38,51.71C106.08,35.4,116,18.79,131,12.2"/><path class="cls-3" d="M123.06,11.42A9.07,9.07,0,1,0,129.47.31,9.07,9.07,0,0,0,123.06,11.42Z"/><path class="cls-4" d="M25.12,60.27a64.87,64.87,0,1,0,117.64,0c-15.53,10.79-36.17,17.37-58.82,17.37S40.65,71.06,25.12,60.27Z"/><path class="cls-3" d="M83.94,22.75A64.86,64.86,0,0,0,25.12,60.27C40.65,71.06,61.29,77.64,83.94,77.64s43.29-6.58,58.82-17.37A64.86,64.86,0,0,0,83.94,22.75Z"/><circle class="cls-5" cx="60.24" cy="51.47" r="8"/><path class="cls-6" d="M55.61,51.47a3.49,3.49,0,0,1-.18-.35,2.46,2.46,0,0,1-.22-1,3.61,3.61,0,0,1,.23-1.46,5,5,0,0,1,.39-.76,5.2,5.2,0,0,1,.55-.69,5,5,0,0,1,.69-.55,4.21,4.21,0,0,1,.76-.39,3.64,3.64,0,0,1,.77-.2,2.78,2.78,0,0,1,.7,0,2.08,2.08,0,0,1,.58.08,1.55,1.55,0,0,1,.43.14,2.46,2.46,0,0,1,.35.18s-.12.09-.32.21-.48.31-.76.5A13.2,13.2,0,0,0,57.8,48.6a13.81,13.81,0,0,0-1.48,1.78c-.19.3-.38.53-.49.76S55.61,51.47,55.61,51.47Z"/><circle class="cls-5" cx="107.64" cy="51.47" r="8"/><path class="cls-6" d="M103,51.47a3.49,3.49,0,0,1-.18-.35,2.46,2.46,0,0,1-.22-1,3.61,3.61,0,0,1,.23-1.46,4.21,4.21,0,0,1,.39-.76,3.93,3.93,0,0,1,1.24-1.24,4.21,4.21,0,0,1,.76-.39,3.72,3.72,0,0,1,.76-.2,2.82,2.82,0,0,1,.7,0,2.1,2.1,0,0,1,.59.08,1.67,1.67,0,0,1,.43.14,2.46,2.46,0,0,1,.35.18l-.33.21c-.2.12-.47.31-.76.5a12.16,12.16,0,0,0-3.25,3.25c-.2.3-.38.53-.5.76A3.49,3.49,0,0,1,103,51.47Z"/><g class="cls-7"><line class="cls-8" x1="4.5" y1="85.38" x2="168.09" y2="85.38"/><line class="cls-8" x1="14.51" y1="106.39" x2="168.09" y2="106.39"/><line class="cls-8" x1="14.51" y1="125.4" x2="168.09" y2="125.4"/><line class="cls-8" x1="14.51" y1="146.41" x2="168.09" y2="146.41"/></g><path class="cls-9" d="M11.64,112.14c8.89-17.56,56.92-33.58,56.92-33.58s15.57,48.18,6.69,65.74a35.64,35.64,0,0,1-63.61-32.16Z"/><path class="cls-9" d="M156.24,112.14c-8.89-17.56-56.92-33.58-56.92-33.58s-15.57,48.18-6.69,65.74a35.64,35.64,0,0,0,63.61-32.16Z"/></g></g></svg>