<svg xmlns="http://www.w3.org/2000/svg" viewBox="0 0 139.21 147.44"><defs><style>.cls-1{fill:#fcecdb;}.cls-2{fill:#fff;}.cls-3{fill:#35190e;}.cls-4{fill:#ffa81d;}</style></defs><title>icon_5</title><g id="Layer_2" data-name="Layer 2"><g id="Layer_1-2" data-name="Layer 1"><path class="cls-1" d="M63.43,108.82H75.78A149,149,0,0,1,97.65,22.63a83.8,83.8,0,0,0-28-4.56,83.71,83.71,0,0,0-28,4.56A149.06,149.06,0,0,1,63.43,108.82Z"/><path class="cls-2" d="M107.47,93.07a71.32,71.32,0,0,0,31.09-18.52,74,74,0,0,0-1.52-8c-5.66-22.85-20.43-37.21-39.39-43.95a149,149,0,0,0-21.87,86.19H63.43A149.06,149.06,0,0,0,41.57,22.63c-19,6.74-33.73,21.1-39.4,44a74,74,0,0,0-1.51,8A71.23,71.23,0,0,0,31.74,93.07c-10.81.1-20.42,8.86-26,19.45C16,135.46,38.9,147.44,69.61,147.44s53.64-12,63.86-34.92C127.89,101.93,118.28,93.17,107.47,93.07Z"/><path class="cls-1" d="M31.74,93.07A71.23,71.23,0,0,1,.66,74.55a73.54,73.54,0,0,0,.55,23.09c0,.23.09.45.14.68a64.73,64.73,0,0,0,4.4,14.2C11.32,101.93,20.93,93.17,31.74,93.07Z"/><path class="cls-1" d="M138,97.64a73.54,73.54,0,0,0,.55-23.09,71.32,71.32,0,0,1-31.09,18.52c10.81.1,20.42,8.86,26,19.45a65.27,65.27,0,0,0,4.4-14.2C137.91,98.09,138,97.87,138,97.64ZM134.74,79.2c.18.5.36,1,.52,1.49C135.1,80.19,134.92,79.7,134.74,79.2Z"/><circle class="cls-3" cx="35.68" cy="90.41" r="8"/><path class="cls-2" d="M31.05,90.41a3.81,3.81,0,0,1,5.05-5c-.66.42-1.17.75-1.63,1.11a11.85,11.85,0,0,0-2.31,2.31C31.8,89.24,31.47,89.75,31.05,90.41Z"/><circle class="cls-3" cx="103.09" cy="90.41" r="8"/><path class="cls-2" d="M98.46,90.41a3.81,3.81,0,0,1,5.05-5c-.66.42-1.17.75-1.63,1.11a11.85,11.85,0,0,0-2.31,2.31C99.21,89.24,98.88,89.75,98.46,90.41Z"/><path class="cls-4" d="M57.94,113.53c0-3.91,23.33-3.91,23.33,0s-5.22,7.07-11.66,7.07S57.94,117.43,57.94,113.53Z"/><path class="cls-1" d="M63.07,18.69q2.58-6,5.15-12.08A14.43,14.43,0,0,1,70.85,2C74.56-1.8,81.94.12,84.12,5s-.44,11-5,13.77-10.52,2.51-15.44.42"/><path class="cls-4" d="M93.11,110.91c0,6.24-47,6.24-47,0s10.52-11.32,23.5-11.32S93.11,104.66,93.11,110.91Z"/></g></g></svg>