<svg xmlns="http://www.w3.org/2000/svg" viewBox="0 0 184.08 132.38"><defs><style>.cls-1{fill:#c96e31;}.cls-2{fill:#ffc5ae;}.cls-3{fill:#ffe4cc;}.cls-4{fill:#35190e;}.cls-5{fill:#fff;}.cls-6{fill:none;stroke:#998271;stroke-linecap:round;stroke-linejoin:round;stroke-width:3px;}.cls-7{fill:#998271;}</style></defs><title>icon_8</title><g id="Layer_2" data-name="Layer 2"><g id="Layer_1-2" data-name="Layer 1"><circle class="cls-1" cx="21.62" cy="47.81" r="21.62"/><circle class="cls-2" cx="24.58" cy="50.77" r="12.5"/><circle class="cls-1" cx="162.46" cy="47.81" r="21.62"/><circle class="cls-2" cx="159.5" cy="50.77" r="12.5"/><path class="cls-3" d="M115.58,34.66C105.13,36.1,95.75,43.36,92,52.46,88.33,43.36,79,36.1,68.51,34.66c-14.19-2-28.74,5.56-36.6,16.86-5.86,8.44-8.32,18.6-8.13,28.74C30,112.44,55.53,132.38,92,132.38s62.06-19.94,68.26-52.12c.19-10.14-2.27-20.3-8.13-28.74C144.32,40.22,129.77,32.7,115.58,34.66Z"/><path class="cls-1" d="M159.48,48.52C151.23,15.25,123.71,0,92,0S32.85,15.25,24.61,48.52a73.54,73.54,0,0,0-1,31c0,.23.1.46.14.69-.19-10.14,2.27-20.3,8.13-28.74,7.86-11.3,22.41-18.82,36.6-16.86C79,36.1,88.33,43.36,92,52.46c3.71-9.1,13.09-16.36,23.54-17.8,14.19-2,28.74,5.56,36.59,16.86,5.86,8.44,8.32,18.6,8.13,28.74,0-.23.1-.46.14-.69A73.54,73.54,0,0,0,159.48,48.52Z"/><circle class="cls-4" cx="58.34" cy="72.34" r="8"/><path class="cls-5" d="M53.71,72.34a3.12,3.12,0,0,1-.19-.35,2.64,2.64,0,0,1-.21-1,3.46,3.46,0,0,1,.23-1.47,3.83,3.83,0,0,1,.39-.75,4.58,4.58,0,0,1,.55-.7,5.2,5.2,0,0,1,.69-.55,4.48,4.48,0,0,1,.75-.39,4.87,4.87,0,0,1,.77-.2,2.8,2.8,0,0,1,.7,0A2,2,0,0,1,58,67a1.81,1.81,0,0,1,.43.14,2.32,2.32,0,0,1,.36.18l-.33.22c-.2.11-.47.3-.76.49a14.68,14.68,0,0,0-1.78,1.48,12.49,12.49,0,0,0-1.47,1.78,8.09,8.09,0,0,0-.5.75A3.49,3.49,0,0,1,53.71,72.34Z"/><circle class="cls-4" cx="125.75" cy="72.34" r="8"/><path class="cls-5" d="M121.11,72.34s-.07-.12-.18-.35a2.64,2.64,0,0,1-.21-1,3.46,3.46,0,0,1,.23-1.47,3.83,3.83,0,0,1,.39-.75,4.58,4.58,0,0,1,.55-.7,4.63,4.63,0,0,1,.69-.55,3.83,3.83,0,0,1,.75-.39,4.87,4.87,0,0,1,.77-.2,2.8,2.8,0,0,1,.7,0,2.08,2.08,0,0,1,.58.08,1.81,1.81,0,0,1,.43.14,2.32,2.32,0,0,1,.36.18l-.33.22c-.2.11-.47.3-.76.49a14,14,0,0,0-1.78,1.48,13.3,13.3,0,0,0-1.48,1.78c-.19.29-.37.52-.49.75S121.11,72.34,121.11,72.34Z"/><path class="cls-6" d="M91.32,96.85c.44.87,0,9.91,0,9.91s-3.16,7.11-12.11,4"/><path class="cls-6" d="M92.76,96.85c-.44.87,0,9.91,0,9.91s3.16,7.11,12.11,4"/><circle class="cls-7" cx="92.04" cy="93.6" r="5.5"/></g></g></svg>